<mxfile host="app.diagrams.net" modified="2021-11-21T11:20:25.260Z" agent="5.0 (Macintosh)" etag="ekilNH5Uha3G5xFYydp3" version="15.8.3" type="github">
  <diagram id="290As5Wlc3rfg6Whu8p7" name="Page-1">
    <mxGraphModel dx="1226" dy="1053" grid="1" gridSize="10" guides="1" tooltips="1" connect="1" arrows="1" fold="1" page="1" pageScale="1" pageWidth="850" pageHeight="1100" math="0" shadow="0">
      <root>
        <mxCell id="0" />
        <mxCell id="1" parent="0" />
        <mxCell id="-fuBTRNTmQIIXSDXiSf4-8" style="edgeStyle=orthogonalEdgeStyle;rounded=0;orthogonalLoop=1;jettySize=auto;html=1;exitX=1;exitY=0.3333333333333333;exitDx=0;exitDy=0;exitPerimeter=0;entryX=0.5;entryY=0;entryDx=0;entryDy=0;" edge="1" parent="1" source="QCJCobPRxYdbbXl_IZjL-1" target="QCJCobPRxYdbbXl_IZjL-3">
          <mxGeometry relative="1" as="geometry" />
        </mxCell>
        <mxCell id="QCJCobPRxYdbbXl_IZjL-1" value="user" style="shape=umlActor;verticalLabelPosition=bottom;verticalAlign=top;html=1;outlineConnect=0;" parent="1" vertex="1">
          <mxGeometry x="310" y="50" width="30" height="60" as="geometry" />
        </mxCell>
        <mxCell id="QCJCobPRxYdbbXl_IZjL-9" style="edgeStyle=orthogonalEdgeStyle;rounded=0;orthogonalLoop=1;jettySize=auto;html=1;exitX=0.5;exitY=1;exitDx=0;exitDy=0;" parent="1" source="QCJCobPRxYdbbXl_IZjL-3" target="QCJCobPRxYdbbXl_IZjL-4" edge="1">
          <mxGeometry relative="1" as="geometry" />
        </mxCell>
        <mxCell id="QCJCobPRxYdbbXl_IZjL-10" style="edgeStyle=orthogonalEdgeStyle;rounded=0;orthogonalLoop=1;jettySize=auto;html=1;exitX=0.5;exitY=1;exitDx=0;exitDy=0;" parent="1" source="QCJCobPRxYdbbXl_IZjL-3" target="QCJCobPRxYdbbXl_IZjL-5" edge="1">
          <mxGeometry relative="1" as="geometry" />
        </mxCell>
        <mxCell id="QCJCobPRxYdbbXl_IZjL-11" style="edgeStyle=orthogonalEdgeStyle;rounded=0;orthogonalLoop=1;jettySize=auto;html=1;exitX=0.5;exitY=1;exitDx=0;exitDy=0;" parent="1" source="QCJCobPRxYdbbXl_IZjL-3" target="QCJCobPRxYdbbXl_IZjL-6" edge="1">
          <mxGeometry relative="1" as="geometry" />
        </mxCell>
        <mxCell id="QCJCobPRxYdbbXl_IZjL-3" value="gateway" style="rhombus;whiteSpace=wrap;html=1;" parent="1" vertex="1">
          <mxGeometry x="340" y="250" width="80" height="80" as="geometry" />
        </mxCell>
        <mxCell id="QCJCobPRxYdbbXl_IZjL-18" value="request client credentials grant" style="edgeStyle=orthogonalEdgeStyle;rounded=0;orthogonalLoop=1;jettySize=auto;html=1;exitX=0.5;exitY=1;exitDx=0;exitDy=0;entryX=0.55;entryY=0.95;entryDx=0;entryDy=0;entryPerimeter=0;" parent="1" source="QCJCobPRxYdbbXl_IZjL-4" target="QCJCobPRxYdbbXl_IZjL-13" edge="1">
          <mxGeometry relative="1" as="geometry">
            <Array as="points">
              <mxPoint x="230" y="580" />
              <mxPoint x="696" y="580" />
            </Array>
          </mxGeometry>
        </mxCell>
        <mxCell id="QCJCobPRxYdbbXl_IZjL-20" style="edgeStyle=orthogonalEdgeStyle;rounded=0;orthogonalLoop=1;jettySize=auto;html=1;exitX=0.25;exitY=1;exitDx=0;exitDy=0;entryX=1;entryY=0.5;entryDx=0;entryDy=0;" parent="1" source="QCJCobPRxYdbbXl_IZjL-4" target="QCJCobPRxYdbbXl_IZjL-7" edge="1">
          <mxGeometry relative="1" as="geometry" />
        </mxCell>
        <mxCell id="QCJCobPRxYdbbXl_IZjL-4" value="microservice 1" style="rounded=1;whiteSpace=wrap;html=1;" parent="1" vertex="1">
          <mxGeometry x="170" y="390" width="120" height="60" as="geometry" />
        </mxCell>
        <mxCell id="QCJCobPRxYdbbXl_IZjL-5" value="microservice 2" style="rounded=1;whiteSpace=wrap;html=1;" parent="1" vertex="1">
          <mxGeometry x="320" y="390" width="120" height="60" as="geometry" />
        </mxCell>
        <mxCell id="QCJCobPRxYdbbXl_IZjL-17" value="remote token introspection" style="edgeStyle=orthogonalEdgeStyle;rounded=0;orthogonalLoop=1;jettySize=auto;html=1;exitX=0.5;exitY=1;exitDx=0;exitDy=0;entryX=0.55;entryY=0.95;entryDx=0;entryDy=0;entryPerimeter=0;" parent="1" source="QCJCobPRxYdbbXl_IZjL-6" target="QCJCobPRxYdbbXl_IZjL-13" edge="1">
          <mxGeometry x="-0.4583" relative="1" as="geometry">
            <Array as="points">
              <mxPoint x="530" y="500" />
              <mxPoint x="696" y="500" />
            </Array>
            <mxPoint as="offset" />
          </mxGeometry>
        </mxCell>
        <mxCell id="QCJCobPRxYdbbXl_IZjL-6" value="microservice 3" style="rounded=1;whiteSpace=wrap;html=1;" parent="1" vertex="1">
          <mxGeometry x="470" y="390" width="120" height="60" as="geometry" />
        </mxCell>
        <mxCell id="QCJCobPRxYdbbXl_IZjL-7" value="microservice 4" style="rounded=1;whiteSpace=wrap;html=1;" parent="1" vertex="1">
          <mxGeometry x="50" y="510" width="120" height="60" as="geometry" />
        </mxCell>
        <mxCell id="QCJCobPRxYdbbXl_IZjL-15" style="edgeStyle=orthogonalEdgeStyle;rounded=0;orthogonalLoop=1;jettySize=auto;html=1;exitX=0.07;exitY=0.4;exitDx=0;exitDy=0;exitPerimeter=0;entryX=1;entryY=0;entryDx=0;entryDy=0;" parent="1" source="QCJCobPRxYdbbXl_IZjL-13" target="QCJCobPRxYdbbXl_IZjL-3" edge="1">
          <mxGeometry relative="1" as="geometry">
            <Array as="points">
              <mxPoint x="400" y="192" />
            </Array>
          </mxGeometry>
        </mxCell>
        <mxCell id="QCJCobPRxYdbbXl_IZjL-13" value="Okta" style="ellipse;shape=cloud;whiteSpace=wrap;html=1;" parent="1" vertex="1">
          <mxGeometry x="630" y="160" width="120" height="80" as="geometry" />
        </mxCell>
        <mxCell id="-fuBTRNTmQIIXSDXiSf4-2" value="Validate User JWT" style="edgeStyle=orthogonalEdgeStyle;rounded=0;orthogonalLoop=1;jettySize=auto;html=1;exitX=0;exitY=0;exitDx=0;exitDy=0;entryX=0;entryY=1;entryDx=0;entryDy=0;" edge="1" parent="1" source="QCJCobPRxYdbbXl_IZjL-3" target="QCJCobPRxYdbbXl_IZjL-3">
          <mxGeometry relative="1" as="geometry">
            <Array as="points">
              <mxPoint x="360" y="230" />
              <mxPoint x="220" y="230" />
              <mxPoint x="220" y="350" />
              <mxPoint x="360" y="350" />
            </Array>
          </mxGeometry>
        </mxCell>
        <mxCell id="-fuBTRNTmQIIXSDXiSf4-3" value="Validate JWT with particular scope" style="edgeStyle=orthogonalEdgeStyle;rounded=0;orthogonalLoop=1;jettySize=auto;html=1;exitX=0.25;exitY=1;exitDx=0;exitDy=0;entryX=0.75;entryY=1;entryDx=0;entryDy=0;" edge="1" parent="1" source="QCJCobPRxYdbbXl_IZjL-5" target="QCJCobPRxYdbbXl_IZjL-5">
          <mxGeometry relative="1" as="geometry">
            <Array as="points">
              <mxPoint x="350" y="530" />
              <mxPoint x="410" y="530" />
            </Array>
          </mxGeometry>
        </mxCell>
        <mxCell id="-fuBTRNTmQIIXSDXiSf4-4" value="validate client credentials tokens" style="edgeStyle=orthogonalEdgeStyle;rounded=0;orthogonalLoop=1;jettySize=auto;html=1;exitX=0.25;exitY=1;exitDx=0;exitDy=0;entryX=0.75;entryY=1;entryDx=0;entryDy=0;" edge="1" parent="1" source="QCJCobPRxYdbbXl_IZjL-7" target="QCJCobPRxYdbbXl_IZjL-7">
          <mxGeometry relative="1" as="geometry">
            <Array as="points">
              <mxPoint x="80" y="630" />
              <mxPoint x="140" y="630" />
            </Array>
          </mxGeometry>
        </mxCell>
      </root>
    </mxGraphModel>
  </diagram>
</mxfile>
